{"title":"Dateline.AU.2015.05.05.Nepals.Nightmare.HDTV.XviD-AFG","uid":11893837,"size":228647548,"categoryP":"video","categoryS":"tv_shows","magnet":"?xt=urn:btih:0bba1c04b9e63a560a240d8765689d87d71054c9&amp;dn=Dateline.AU.2015.05.05.Nepals.Nightmare.HDTV.XviD-AFG&amp;tr=udp%3A%2F%2Ftracker.openbittorrent.com%3A80&amp;tr=udp%3A%2F%2Fopen.demonii.com%3A1337&amp;tr=udp%3A%2F%2Ftracker.coppersurfer.tk%3A6969&amp;tr=udp%3A%2F%2Fexodus.desync.com%3A6969","seeders":0,"leechers":1,"uploader":"toots2boots","files":2,"time":1431091556,"description":"The magnitude 7.8 earthquake, which killed more than 7500 people and affected more than 8 million, has wiped out entire villages and destroyed a vast amount of infrastructure.Aid agencies estimate that between 50 and 70 per cent of community health facilities have been destroyed in affected regions.To make matters worse, the monsoon season is coming and hundreds of thousands of people are homeless. With the rains will come lack of shelter and increased risk of disease outbreaks.Rebuilding basic infrastructure will be difficult for Nepal, one of the poorest countries in Asia.&quot;Should the humanitarian response falter for lack of funds or any other reason, it threatens to reverse decades of progress improving the lives of Nepalese families and communities, and especially for mothers and children.&quot; \n PLEASE DONATE ANY AMOUNT YOU CAN AFFORD TO YOUR FAVORITE AID AGENCY\n\nGeneral\nComplete name                            : G:Torrent uploadDateline AUDateline.AU.2015.05.05.Nepals.Nightmare.HDTV.XviD-AFGDateline.AU.2015.05.05.Nepals.Nightmare.HDTV.XviD-AFG.avi\nFormat                                   : AVI\nFormat/Info                              : Audio Video Interleave\nFile size                                : 218 MiB\nDuration                                 : 25mn 34s\nOverall bit rate mode                    : Variable\nOverall bit rate                         : 1 192 Kbps\n\nVideo\nID                                       : 0\nFormat                                   : MPEG-4 Visual\nFormat profile                           : Advanced Simple@L5\nFormat settings, BVOP                    : 2\nFormat settings, QPel                    : No\nFormat settings, GMC                     : No warppoints\nFormat settings, Matrix                  : Default (H.263)\nCodec ID                                 : XVID\nCodec ID/Hint                            : XviD\nDuration                                 : 25mn 34s\nBit rate                                 : 1 051 Kbps\nWidth                                    : 640 pixels\nHeight                                   : 360 pixels\nDisplay aspect ratio                     : 16:9\nFrame rate                               : 25.000 fps\nColor space                              : YUV\nChroma subsampling                       : 4:2:0\nBit depth                                : 8 bits\nScan type                                : Progressive\nCompression mode                         : Lossy\nBits/(Pixel*Frame)                       : 0.182\nStream size                              : 192 MiB (88%)\nWriting library                          : XviD 64\n\nAudio\nID                                       : 1\nFormat                                   : MPEG Audio\nFormat version                           : Version 1\nFormat profile                           : Layer 3\nMode                                     : Joint stereo\nMode extension                           : MS Stereo\nCodec ID                                 : 55\nCodec ID/Hint                            : MP3\nDuration                                 : 25mn 34s\nBit rate mode                            : Variable\nBit rate                                 : 128 Kbps\nChannel(s)                               : 2 channels\nSampling rate                            : 48.0 KHz\nCompression mode                         : Lossy\nStream size                              : 23.4 MiB (11%)\nAlignment                                : Aligned on interleaves\nInterleave, duration                     : 24 ms (0.60 video frame)\nInterleave, preload duration             : 178 ms\nTitle                                    : Dateline.AU.2015.05.05.Nepals.Nightmare.HDTV.XviD-AFG_360p.audio","torrent":{"xt":"urn:btih:0bba1c04b9e63a560a240d8765689d87d71054c9","amp;dn":"Dateline.AU.2015.05.05.Nepals.Nightmare.HDTV.XviD-AFG","amp;tr":["udp%3A%2F%2Ftracker.openbittorrent.com%3A80","udp%3A%2F%2Fopen.demonii.com%3A1337","udp%3A%2F%2Ftracker.coppersurfer.tk%3A6969","udp%3A%2F%2Fexodus.desync.com%3A6969"],"infoHash":"0bba1c04b9e63a560a240d8765689d87d71054c9","infoHashBuffer":{"type":"Buffer","data":[11,186,28,4,185,230,58,86,10,36,13,135,101,104,157,135,215,16,84,201]},"announce":[],"urlList":[]}}